<svg width="208" height="162" viewBox="0 0 208 162" fill="none" xmlns="http://www.w3.org/2000/svg">
    <path
        d="M79.1376 3.2041C75.5785 4.08576 72.0149 4.90547 68.474 5.85861C59.6951 8.19566 51.0734 11.141 42.6657 14.6752C34.6447 17.9575 26.9357 22.0247 19.6404 26.8229C16.6797 28.7945 13.8399 30.9592 11.1375 33.3043C8.60035 35.4762 6.25857 37.8882 4.14179 40.51C2.43347 42.4264 1.2787 44.6642 0 46.8768C0.220273 46.7725 0.428411 46.6292 0.628011 46.4862C0.673407 46.4529 0.717713 46.4183 0.760841 46.3837C0.967056 46.2209 1.1683 46.054 1.3814 45.9048C5.99378 42.6964 11.4935 39.6856 16.6894 37.6888C22.5816 35.421 46.9686 26.8603 54.8818 37.1932C58.9678 42.377 58.5726 49.987 53.9739 54.6737C51.1197 57.6067 47.2317 59.1606 43.2422 58.9628C39.999 58.9228 36.7902 59.6646 33.863 61.1312C34.1651 61.1747 34.4719 61.165 34.7709 61.1027C37.1056 60.567 39.5113 60.4622 41.8802 60.7929C47.0872 61.4315 51.1048 64.1051 55.1906 67.5031C57.4518 69.3876 59.495 71.5435 61.2783 73.9271C62.8379 75.9666 64.2062 78.1595 65.3641 80.4753C66.1131 82.0003 66.9121 83.5015 67.5386 85.0837C68.2286 86.8518 68.792 88.6544 69.3913 90.4654L69.5661 88.3953L69.928 84.0865L70.4315 78.5111L71.0251 72.4138L71.5375 67.4671C71.6873 65.985 71.8759 64.4522 72.0257 62.9701L72.7668 56.4612C72.9272 54.7392 73.2116 53.0091 73.3811 51.2934L73.5298 50.0674L73.7626 48.165L74.4835 42.3831L74.8424 39.5497C75.1087 36.9476 75.6995 34.9437 75.978 32.3417C76.0642 31.5744 76.1777 30.8071 76.2821 30.0399C76.4727 28.1336 76.671 26.2272 76.8768 24.321C77.0084 22.9437 77.1054 21.5501 77.2643 20.1728C77.5673 17.4974 77.2643 20.1728 77.5673 17.4974C77.8393 15.076 78.1388 12.7117 78.4429 10.3288C78.6336 8.31451 78.8259 6.30029 79.0196 4.28602C79.0513 3.92383 79.0967 3.56629 79.1376 3.2041Z"
        fill="#FDFDFD" />
    <path
        d="M95.3576 0L79.1873 3.19135L79.1374 3.20419C78.6108 8.01279 77.977 13.9452 77.4258 18.734C75.8488 33.3713 71.8374 59.5522 69.4269 90.1337C69.3911 90.4654 69.4269 90.1337 69.3911 90.4655C69.8451 92.0382 70.2712 93.7556 70.6389 95.6143C70.9431 97.1202 71.1701 98.5595 71.3471 99.9034C71.7355 103.263 71.8873 106.648 71.8011 110.031C71.8011 110.426 71.7194 111.846 71.6513 113.133C71.624 113.61 71.6195 113.71 71.6104 113.81C71.5242 114.868 71.3789 115.301 71.3653 116.193V116.76C71.9963 114.553 72.7681 112.232 73.7078 109.83C74.0301 108.996 74.3661 108.186 74.702 107.405C75.2513 106.604 78.3065 102.291 82.6555 102.429C83.2715 102.452 83.882 102.559 84.4714 102.749C85.2432 96.0575 86.0134 89.3649 86.7821 82.6706C86.428 81.5554 85.9287 79.959 85.3794 78.0336C84.0856 73.5253 82.5512 68.1543 81.616 61.8303C80.9759 57.4601 79.8908 49.6872 81.3662 39.8413C81.6795 37.7587 82.07 36.0287 82.8508 32.6498C84.4533 25.6586 86.1874 18.2669 89.9871 9.94124C91.5597 6.50307 93.3541 3.18158 95.3576 0Z"
        fill="url(#paint0_linear_719_9)" />
    <path
        d="M158.887 3.78711C158.908 3.81094 159.068 3.85617 159.227 3.95149C160.385 4.61392 159.94 7.70198 159.767 8.78379C159.179 12.3005 158.322 15.7774 157.257 19.1683C165.377 12.7516 173.758 16.0067 183.247 16.0135C187.458 15.8742 191.643 15.2541 195.726 14.1643C198.611 13.3993 201.436 12.4084 204.179 11.2001C198.945 11.3812 194.473 11.2668 190.991 11.081C183.692 10.6902 180.123 9.95139 178.584 9.60359C178.058 9.48445 177.572 9.37006 177.109 9.25091C177.109 9.25091 175.257 8.77432 173.436 8.20721C170.027 7.12539 168.856 6.16274 165.387 5.10475C162.133 4.12778 158.965 3.79898 158.887 3.78711Z"
        fill="url(#paint1_linear_719_9)" />
    <path
        d="M154.303 3.58336C150.415 3.69817 146.565 4.51585 142.925 6.01047C139.017 7.66517 135.361 9.91315 132.075 12.6825C128.942 15.334 126.09 18.3313 123.568 21.6229C122.433 23.0717 121.343 24.5681 120.335 26.1217C119.223 27.8422 118.197 29.6341 117.189 31.426C116.563 32.5555 116.086 33.7755 115.464 34.905C113.642 38.3748 112.102 42 110.861 45.7421C110.098 47.8819 109.508 50.0932 108.904 52.2902C107.874 56.0217 106.821 59.7438 105.913 63.5087C105.127 66.7637 104.483 70.052 103.892 73.3546C103.243 77.0147 102.585 80.689 102.195 84.3872C101.741 88.7478 101.536 93.137 101.287 97.5167C101.205 99.2991 101.287 101.096 101.287 103.088C98.4423 101.703 96.2404 98.7302 95.5395 97.855C92.7245 94.4058 90.3667 90.5729 88.5302 86.4603C87.9837 85.2448 87.3961 84.0648 86.8497 82.8252C86.8362 82.7946 86.7959 82.7022 86.7824 82.6716L86.3965 84.9876C86.3375 85.3849 86.3202 85.5136 86.2512 86.0885C86.0923 87.6517 85.9288 89.2197 85.77 90.7876L85.2434 95.5723L85.2161 96.0488L85.0935 96.6684L84.6396 101.32C84.6078 101.796 84.508 102.273 84.4717 102.749C84.7304 102.926 85.0436 103.126 85.316 103.274C86.5796 103.999 87.7246 104.932 88.7072 106.038C91.4476 109.082 93.7205 112.555 95.4442 116.332C96.452 118.41 97.4144 120.502 98.2678 122.646C99.4512 125.626 100.565 128.632 101.609 131.663C102.29 133.688 102.86 135.623 103.473 137.692C103.582 137.997 103.662 138.461 103.806 138.75C104.518 138.338 105.242 137.952 105.926 137.475C106.63 136.986 107.239 136.568 107.834 136.066C109.465 134.722 110.441 133.783 111.472 132.472C112.622 131.039 113.626 129.563 114.537 127.951C115.956 125.412 116.793 122.437 117.308 119.543C117.336 119.455 117.374 119.192 117.408 119.024C117.418 118.975 117.424 118.932 117.43 118.905C117.58 117.028 117.743 115.474 117.857 113.568C118.154 108.649 118.205 103.718 118.011 98.794C117.961 97.6073 117.929 96.4159 117.961 95.2244C118.107 90.5939 118.76 85.9965 119.909 81.523C120.931 77.5015 122.298 73.5856 123.994 69.8232C125.418 66.7304 127.088 63.7699 128.988 60.9734C130.151 59.1773 131.583 57.5903 133.228 56.2743C137.265 53.2052 141.649 50.6744 146.28 48.7397C151.5 46.4971 156.885 44.7025 162.382 43.3736C166.854 42.2599 171.39 41.4465 175.96 40.9383C178.557 40.6619 181.167 40.476 183.764 40.1853C189.076 39.625 194.285 38.2822 199.24 36.1965C200.95 35.4634 202.639 34.6706 204.195 33.6209C204.441 33.4801 204.684 33.3374 204.919 33.195C205.574 32.7709 206.164 32.2438 206.667 31.6319C206.799 31.4627 206.91 31.2771 206.998 31.0791C207.026 31.0137 207.05 30.9468 207.071 30.8788C205.91 31.393 204.716 31.8215 203.498 32.1609C203.163 32.2533 202.858 32.3529 202.571 32.4462C199.671 33.0125 196.736 33.3617 193.788 33.4753C189.538 33.6696 185.279 33.4189 181.077 32.727C178.119 32.2412 175.214 31.4543 172.401 30.3776C168.933 28.9955 165.342 28.2377 161.642 28.7905C159.268 29.2113 156.918 29.7747 154.606 30.4776C150.978 31.5457 147.436 32.908 144.01 34.5523L143.461 34.6429C143.547 34.538 143.638 34.4331 143.724 34.3235C145.113 32.4172 146.47 30.468 147.91 28.6047C149.778 26.2036 151.861 23.995 154.129 22.0089C155.105 21.1463 156.048 20.2632 157.028 19.4006L157.257 19.1686C157.824 18.0153 158.428 16.881 158.941 15.7039C160.044 13.0291 160.511 10.1131 160.303 7.20665C160.197 6.10696 160.042 4.99006 159.825 3.90863C159.284 3.83238 158.737 3.74675 158.196 3.70385C156.899 3.58495 155.598 3.54514 154.303 3.58336Z"
        fill="#FDFDFD" />
    <path
        d="M115.558 136.651C114.904 139.796 114.395 142.027 113.642 145.101C113.642 145.101 111.435 154.156 109.933 158.445C109.819 158.773 109.738 158.95 109.656 159.207C109.615 159.331 109.597 159.398 109.551 159.55C109.403 160.193 109.184 160.815 108.898 161.404L108.816 161.552C108.816 161.519 108.784 161.461 108.762 161.385C108.68 161.142 108.612 160.961 108.598 160.909C108.448 160.464 108.332 160.009 108.249 159.546C107.89 157.596 107.427 155.666 107.136 153.703C106.623 150.286 105.933 147.484 104.826 142.994C104.372 141.207 104.069 139.707 103.806 138.749C106.741 137.172 109.293 135.07 111.472 132.472C114.92 127.926 116.183 125.683 117.469 118.423C117.29 122.593 117.03 127.575 116.447 131.704C116.184 133.42 115.887 135.069 115.558 136.651Z"
        fill="url(#paint2_linear_719_9)" />
    <defs>
        <linearGradient id="paint0_linear_719_9" x1="73.7619" y1="50.5822" x2="93.4919" y2="51.1779"
            gradientUnits="userSpaceOnUse">
            <stop stop-color="#1CA0E7" />
            <stop offset="1" stop-color="#0C4562" />
        </linearGradient>
        <linearGradient id="paint1_linear_719_9" x1="204.179" y1="14.822" x2="159.699" y2="9.33458"
            gradientUnits="userSpaceOnUse">
            <stop stop-color="#1CA0E7" />
            <stop offset="1" stop-color="#0C4562" />
        </linearGradient>
        <linearGradient id="paint2_linear_719_9" x1="103.806" y1="139.987" x2="117.469" y2="139.892"
            gradientUnits="userSpaceOnUse">
            <stop stop-opacity="0.468085" />
            <stop offset="0.0001" stop-color="#1CA0E7" />
            <stop offset="0.965142" stop-color="#0C4562" />
        </linearGradient>
    </defs>
</svg>